<?xml version="1.0" encoding="UTF-8"?>
<!-- Created with Inkscape (http://www.inkscape.org/) -->
<svg width="408.67mm" height="137.12mm" version="1.1" viewBox="0 0 408.67 137.12" xmlns="http://www.w3.org/2000/svg">
 <defs>
  <clipPath id="clipPath2">
   <path transform="translate(-556.71 -462.03)" d="M 0,595.276 H 1158.44 V 0 H 0 Z"/>
  </clipPath>
  <clipPath id="clipPath4">
   <path transform="translate(-556.96 -397.44)" d="M 0,595.276 H 1158.44 V 0 H 0 Z"/>
  </clipPath>
  <clipPath id="clipPath6">
   <path transform="translate(-373.91 -188.94)" d="M 0,595.276 H 1158.44 V 0 H 0 Z"/>
  </clipPath>
  <clipPath id="clipPath8">
   <path transform="translate(-171.93 -188.64)" d="M 0,595.276 H 1158.44 V 0 H 0 Z"/>
  </clipPath>
  <clipPath id="clipPath10">
   <path transform="translate(-635.35 -276.23)" d="M 0,595.276 H 1158.44 V 0 H 0 Z"/>
  </clipPath>
  <clipPath id="clipPath12">
   <path transform="translate(-732.24 -279.34)" d="M 0,595.276 H 1158.44 V 0 H 0 Z"/>
  </clipPath>
  <clipPath id="clipPath14">
   <path transform="translate(-872.58 -290.01)" d="M 0,595.276 H 1158.44 V 0 H 0 Z"/>
  </clipPath>
  <clipPath id="clipPath16">
   <path transform="translate(-1005.8 -270.3)" d="M 0,595.276 H 1158.44 V 0 H 0 Z"/>
  </clipPath>
  <clipPath id="clipPath18">
   <path transform="translate(-831.2 -277.05)" d="M 0,595.276 H 1158.44 V 0 H 0 Z"/>
  </clipPath>
  <clipPath id="clipPath20">
   <path transform="translate(-677.34 -277.05)" d="M 0,595.276 H 1158.44 V 0 H 0 Z"/>
  </clipPath>
  <clipPath id="clipPath22">
   <path transform="translate(-1024.4 -253.29)" d="M 0,595.276 H 1158.44 V 0 H 0 Z"/>
  </clipPath>
  <clipPath id="clipPath24">
   <path transform="translate(-912.53 -271.28)" d="M 0,595.276 H 1158.44 V 0 H 0 Z"/>
  </clipPath>
  <clipPath id="clipPath26">
   <path transform="translate(-969.38 -270.21)" d="M 0,595.276 H 1158.44 V 0 H 0 Z"/>
  </clipPath>
  <clipPath id="clipPath28">
   <path transform="translate(-789 -270.41)" d="M 0,595.276 H 1158.44 V 0 H 0 Z"/>
  </clipPath>
  <clipPath id="clipPath30">
   <path transform="translate(-830.31 -312.77)" d="M 0,595.276 H 1158.44 V 0 H 0 Z"/>
  </clipPath>
  <clipPath id="clipPath32">
   <path transform="translate(-788.93 -311.38)" d="M 0,595.276 H 1158.44 V 0 H 0 Z"/>
  </clipPath>
  <clipPath id="clipPath34">
   <path transform="translate(-969.42 -311.56)" d="M 0,595.276 H 1158.44 V 0 H 0 Z"/>
  </clipPath>
  <clipPath id="clipPath36">
   <path transform="translate(-873.13 -365.6)" d="M 0,595.276 H 1158.44 V 0 H 0 Z"/>
  </clipPath>
  <clipPath id="clipPath38">
   <path transform="translate(-986.09 -363.71)" d="M 0,595.276 H 1158.44 V 0 H 0 Z"/>
  </clipPath>
  <clipPath id="clipPath40">
   <path transform="translate(-788.45 -336.45)" d="M 0,595.276 H 1158.44 V 0 H 0 Z"/>
  </clipPath>
  <clipPath id="clipPath42">
   <path transform="translate(-606.13 -368.77)" d="M 0,595.276 H 1158.44 V 0 H 0 Z"/>
  </clipPath>
  <clipPath id="clipPath44">
   <path transform="translate(-941.01 -353.01)" d="M 0,595.276 H 1158.44 V 0 H 0 Z"/>
  </clipPath>
  <clipPath id="clipPath46">
   <path transform="translate(-698.58 -353.25)" d="M 0,595.276 H 1158.44 V 0 H 0 Z"/>
  </clipPath>
  <clipPath id="clipPath48">
   <path transform="translate(-1032.4 -365.9)" d="M 0,595.276 H 1158.44 V 0 H 0 Z"/>
  </clipPath>
  <clipPath id="clipPath50">
   <path transform="translate(-705.51 -360.09)" d="M 0,595.276 H 1158.44 V 0 H 0 Z"/>
  </clipPath>
  <clipPath id="clipPath52">
   <path transform="translate(-827.45 -368.59)" d="M 0,595.276 H 1158.44 V 0 H 0 Z"/>
  </clipPath>
 </defs>
 <g transform="translate(100.81 -32.808)">
  <g transform="matrix(.28649 0 0 .28649 -116.58 -5.9931)">
   <rect x="55.072" y="135.44" width="1426.5" height="478.62" rx="1.1148" ry="1.149" fill="#fff" stroke-linecap="round" stroke-opacity=".11628" stroke-width="7.4456" style="paint-order:markers stroke fill"/>
   <g fill="#00844a">
    <path transform="matrix(1.3333 0 0 -1.3333 742.28 177.66)" d="m0 0c-0.447-0.345-0.976-0.473-1.514-0.593-23.608-5.291-46.753-12.189-69.609-20.086-12.019-4.152-23.888-8.705-35.733-13.327-14.165-5.528-28.076-11.632-41.888-17.974-11.022-5.061-21.957-10.306-32.713-15.905-20.284-10.56-40.21-21.74-59.407-34.208-14.811-9.618-29.143-19.879-42.851-30.996-8.662-7.025-17.042-14.388-25.189-22.014-5.728-5.363-10.025-9.767-15.458-15.375-0.05-0.052-0.107-0.074-0.158-0.126-6.558-4.883-15.639-15.374-21.984-23.508-6.844-8.772-12.296-17.019-17.95-26.608-7.908-13.412-14.766-29.375-18.48-44.565-0.56-2.289-1.455-5.164-1.721-7.51-0.107-0.341-0.129-0.599-0.129-0.599-0.143-3e-3 -0.386-2e-3 -0.8 7e-3 -0.252 5e-3 -0.505-1e-3 -0.758-1e-3 -22.572 0-45.144-1e-3 -67.716 1e-3 -0.505 0-1.01 0.029-1.515 0.044v249.6c0.064 0.242 0.16 0.481 0.185 0.727 0.389 3.819 1.815 7.237 4.079 10.301 4.754 6.432 11.328 9.956 18.964 11.763 2.005 0.475 4.056 0.63 6.083 0.956z" clip-path="url(#clipPath2)"/>
    <path transform="matrix(1.3333 0 0 -1.3333 742.62 263.77)" d="m0 0c0-15.536-0.011-31.071 0.023-46.607 2e-3 -1.174-0.351-1.931-1.317-2.622-22.369-16.002-45.14-31.396-68.733-45.551-15.929-9.556-32.186-18.514-48.891-26.646-28.708-13.974-58.519-24.971-89.417-33.019-9.448-2.46-18.878-5.012-28.552-6.476-8.19-1.239-16.404-1.872-24.623-0.362-4.75 0.873-9.145 2.601-12.635 6.14-3.408 3.457-4.837 7.734-5.083 12.451-0.351 6.739 1.413 13.086 3.773 19.31 3.703 9.766 9.395 18.304 16.038 26.287 12.913 15.518 27.834 28.905 43.682 41.311 20.356 15.935 41.969 30.021 64.038 43.437 13.247 8.052 26.793 15.563 40.685 22.44 21.235 10.512 43.062 19.595 65.625 26.865 14.236 4.586 28.67 8.422 43.37 11.223 2.022 0.386 2.025 0.386 2.025-1.7 1e-3 -15.494 1e-3 -30.987 1e-3 -46.481z" clip-path="url(#clipPath4)"/>
    <path transform="matrix(1.3333 0 0 -1.3333 498.55 541.78)" d="m0 0c2.004 0.703 3.781 1.336 5.564 1.949 17.846 6.143 35.297 13.266 52.427 21.181 32.481 15.009 63.441 32.698 93.053 52.759 10.424 7.062 20.604 14.462 30.587 22.133 0.344 0.264 0.676 0.812 1.167 0.523 0.443-0.262 0.255-0.848 0.255-1.294 9e-3 -10.061 7e-3 -20.122 7e-3 -30.183 0-13.302-0.145-26.606 0.046-39.906 0.153-10.61-4.884-17.897-13.774-22.923-5.579-3.154-11.657-4.533-18.046-4.534-49.893-7e-3 -99.786-5e-3 -149.68 0-0.446 1e-3 -0.917-0.12-1.607 0.295" clip-path="url(#clipPath6)"/>
   </g>
   <path transform="matrix(1.3333 0 0 -1.3333 229.24 542.18)" d="m0 0v239.67h278.65s-9.3-3.881-21.619-9.205c-17.946-7.756-42.298-18.576-53.642-24.923l-142.71-0.254-0.253-33.878 84.056 0.256s-5.274-3.619-12.594-8.51c-13.526-9.039-31.69-23.397-34.532-25.898l-37.183 0.022 0.253-34.362s-47.782-43.757-60.423-102.92" clip-path="url(#clipPath8)" fill="#b5ddc2"/>
   <g fill="#373435">
    <path transform="matrix(1.3333 0 0 -1.3333 847.14 425.39)" d="m0 0c0 2.903-0.076 5.807 0.034 8.708 0.051 1.359-0.691 2.109-2.423 2.379-1.148 0.178-2.313 0.39-3.476 0.41-6.634 0.112-11.817-2.997-13.969-8.561-2.392-6.186-2.293-12.44-0.319-18.68 0.592-1.874 1.526-3.662 3.207-5.191 3.635-3.306 8.41-3.252 11.835 0.154 1.776 1.767 2.788 3.788 3.62 5.877 1.948 4.894 1.432 9.913 1.491 14.904m0.552-25.891c-1.791-1.843-3.127-3.765-5.214-5.34-5.413-4.084-13.274-4.297-19.088-0.492-5.089 3.331-7.5 7.727-8.935 12.433-2.715 8.906-2.436 17.804 0.879 26.603 1.663 4.412 4.411 8.437 9.29 11.477 5.712 3.559 12.314 4.333 19.494 3.252 2.977-0.448 3.013-0.411 3.02 1.781 0.013 4.638 0.066 9.277-0.028 13.915-0.031 1.524 0.705 2.133 2.783 2.072 2.614-0.076 5.234-0.031 7.851-0.031 1.554 0 2.362-0.513 2.275-1.697-0.032-0.432 6e-3 -0.866 6e-3 -1.299 0-22.325 1e-3 -44.651-1e-3 -66.976-1e-3 -2.845-9e-3 -2.845-3.917-2.849-1.857-2e-3 -3.724 0.087-5.57-0.021-2.287-0.133-2.988 0.609-2.873 2.175 0.122 1.661 0.028 3.331 0.028 4.997" clip-path="url(#clipPath10)"/>
    <path transform="matrix(1.3333 0 0 -1.3333 976.32 421.25)" d="m0 0c0.324 8.1 1.294 15.718 5.572 22.875 3.985 6.669 9.997 11.861 19.87 14.108 7.609 1.732 15.016 0.747 22.385-0.87 1.201-0.264 1.457-0.892 1.526-1.696 0.276-3.205 0.568-6.409 0.902-9.61 0.149-1.433-0.453-1.774-2.297-1.14-3.928 1.352-8.056 2.075-12.433 2.27-7.406 0.33-12.379-2.26-15.936-6.695-2.914-3.632-4.339-7.639-5.011-11.78-1.195-7.369-0.889-14.673 2.253-21.811 0.233-0.529 0.487-1.054 0.773-1.569 4.624-8.297 12.362-11.164 24.226-8.992 2.382 0.436 4.692 1.02 6.925 1.761 1.286 0.426 2.167 0.403 2.055-0.868-0.303-3.45-0.631-6.899-0.944-10.349-0.061-0.668-0.367-1.194-1.334-1.407-13.073-2.872-26.835-3.249-37.603 6.636-5.347 4.909-7.873 10.729-9.413 16.815-1.064 4.206-1.203 8.471-1.516 12.322" clip-path="url(#clipPath12)"/>
    <path transform="matrix(1.3333 0 0 -1.3333 1163.4 407.03)" d="m0 0c0.529 0.811 1.025 1.634 1.592 2.43 3.186 4.468 8.236 6.477 15.097 6.285 6.554-0.183 11.199-2.39 14.019-6.695 2.052-3.133 2.756-6.508 2.784-9.915 0.101-12.243 0.013-24.487 0.086-36.73 0.01-1.699-0.773-2.331-3.089-2.217-2.353 0.116-4.731 0.102-7.087 5e-3 -2.116-0.088-2.791 0.53-2.766 2.044 0.087 5.256 0.032 10.512 0.031 15.768 0 5.442 4e-3 10.883-4e-3 16.325-3e-3 1.939-0.395 3.833-1.684 5.553-3.242 4.327-10.984 4.591-14.835 0.45-2.9-3.118-3.555-6.773-3.991-10.417-1.078-9.009-0.313-18.042-0.521-27.063-0.061-2.632-0.024-2.634-3.7-2.639-2.279-3e-3 -4.56 0.05-6.837-0.011-1.771-0.048-2.392 0.523-2.365 1.769 0.059 2.72 0.012 5.441 0.012 8.162-1e-3 13.974-4e-3 27.949 3e-3 41.924 1e-3 2.424 0.087 2.48 3.42 2.492 2.363 8e-3 4.728-0.034 7.09 6e-3 1.738 0.029 2.424-0.539 2.381-1.79-0.065-1.892-0.017-3.787-0.017-5.68 0.127-0.019 0.254-0.037 0.381-0.056" clip-path="url(#clipPath14)"/>
    <path transform="matrix(1.3333 0 0 -1.3333 1341.1 433.3)" d="m0 0c-3.648-2.052-7.195-3.087-10.525-4.412-4.904-1.951-7.869-4.72-7.649-9.046 0.236-4.65 4.209-6.867 10.315-5.596 4.081 0.849 4.079 0.85 3.501-2.356-0.055-0.307-0.021-0.629-0.135-0.921-0.658-1.689 0.234-4.123-1.864-4.974-2.783-1.13-6.268-1.423-9.605-1.112-6.543 0.61-10.786 3.367-12.844 7.854-2.117 4.614-2.331 9.35-0.745 14.084 1.384 4.13 4.786 7.162 9.823 9.239 3.323 1.37 6.872 2.366 10.404 3.391 1.81 0.525 3.58 1.107 5.16 1.954 3.789 2.033 4.869 6.048 2.363 8.946-1.26 1.457-3.106 2.18-5.488 2.282-5.65 0.244-10.572-1.27-15.337-3.248-0.765-0.318-1.592-1.081-2.456-0.65-0.788 0.394-0.358 1.276-0.316 1.934 0.143 2.221 0.375 4.44 0.556 6.66 0.06 0.745 0.441 1.306 1.438 1.589 6.92 1.961 14.01 3.385 21.498 2.652 8.908-0.871 14.053-5.684 14.181-13.247 0.138-8.102 0.045-16.206 0.049-24.309 2e-3 -5.258-0.051-10.516 0.029-15.773 0.022-1.486-0.585-2.17-2.738-2.073-2.188 0.099-4.4 0.118-6.583-5e-3 -2.364-0.133-3.084 0.575-3.065 2.24 0.081 6.989 0.034 13.979 0.033 20.969v3.928" clip-path="url(#clipPath16)"/>
    <path transform="matrix(1.3333 0 0 -1.3333 1108.3 424.3)" d="m0 0c2.611 0 5.221-3e-3 7.832 2e-3 1.127 2e-3 2.074 0.195 1.902 1.243-0.402 2.442-0.505 4.923-1.998 7.211-2.926 4.483-9.842 4.973-13.785 0.94-2.278-2.33-2.998-5.06-3.537-7.821-0.218-1.116 0.514-1.59 2.007-1.58 2.526 0.019 5.053 5e-3 7.579 5e-3m6.018-7.818c-4.39-2e-3 -8.781-0.039-13.169 0.016-1.807 0.023-2.585-0.407-2.571-1.808 0.034-3.318 0.659-6.533 2.622-9.552 3.042-4.678 8.336-6.513 15.214-5.335 2.982 0.511 5.792 1.348 8.484 2.389 1.59 0.616 2.185 0.309 2.048-0.953-0.322-2.955-0.652-5.91-0.964-8.865-0.07-0.668-0.366-1.229-1.281-1.462-8.26-2.097-19.476-3.457-27.431 1.586-3.609 2.287-6.183 5.125-7.723 8.362-5.534 11.632-5.412 23.315 0.417 34.852 2.548 5.043 7.197 8.886 14.803 9.97 7.714 1.1 14.203-0.611 18.933-5.334 4.246-4.24 5.631-9.204 6.294-14.293 0.32-2.457 0.26-4.938 0.438-7.406 0.113-1.566-0.72-2.231-2.946-2.189-4.387 0.084-8.779 0.025-13.168 0.022" clip-path="url(#clipPath18)"/>
    <path transform="matrix(1.3333 0 0 -1.3333 903.12 424.3)" d="m0 0c2.526 0 5.051 0.015 7.577-6e-3 1.462-0.011 2.249 0.422 2.084 1.547-0.349 2.389-0.594 4.797-2.054 7.01-2.933 4.445-9.986 4.819-13.804 0.746-2.269-2.421-2.987-5.196-3.491-8.023-0.185-1.038 0.713-1.269 1.859-1.271 2.609-5e-3 5.219-2e-3 7.829-3e-3m5.952-7.82c-4.473 0-8.946-7e-3 -13.419 4e-3 -1.299 3e-3 -2.355-0.113-2.353-1.359 5e-3 -3.885 0.732-7.657 3.459-11.066 3.015-3.769 7.888-5.256 13.831-4.359 3.171 0.479 6.119 1.393 8.979 2.463 1.507 0.564 2.231 0.384 2.084-0.934-0.334-3.016-0.681-6.03-0.998-9.047-0.085-0.813-0.764-1.179-1.715-1.409-5.917-1.43-11.938-2.326-18.157-1.368-7.799 1.202-12.578 5.077-15.7 10.141-4.496 7.29-5.229 15.028-4.42 22.882 0.561 5.456 1.905 10.787 5.608 15.652 4.827 6.34 13.099 9.148 22.079 7.463 5.42-1.017 9.115-3.601 11.768-7.092 3.812-5.014 4.564-10.544 4.996-16.119 0.101-1.294-0.044-2.599 0.046-3.894 0.099-1.427-0.697-1.998-2.669-1.971-4.472 0.061-8.946 0.019-13.419 0.019z" clip-path="url(#clipPath20)"/>
    <path transform="matrix(1.3333 0 0 -1.3333 1365.9 455.99)" d="m0 0c0.263 0.833-0.736 1.905 0.247 2.322 1.099 0.465 2.063-0.569 3.04-0.98 2.948-1.239 5.882-2.444 9.441-2.367 3.683 0.08 5.95 1.714 6.17 4.39 0.188 2.279-0.846 4.283-2.581 6.081-2.434 2.523-5.012 4.972-7.547 7.442-4.57 4.452-7.69 9.302-7.655 15.006 0.013 2.116 0.518 4.185 1.509 6.176 2.293 4.609 7.388 7.211 14.078 7.364 4.194 0.096 8.22-0.473 12.235-1.245 1.5-0.288 2.241-0.832 2.307-2.051 0.147-2.714 0.454-5.424 0.78-8.13 0.151-1.259-0.279-1.653-1.926-0.996-2.462 0.983-5.07 1.647-7.861 1.97-5.088 0.59-8.247-1.822-7.038-5.488 0.584-1.772 1.903-3.287 3.347-4.75 3.113-3.156 6.539-6.148 9.251-9.514 4.227-5.246 6.163-10.848 4.416-16.892-1.836-6.349-9.111-10.265-17.981-9.815-3.803 0.193-7.487 0.877-11.096 1.785-1.359 0.342-2.022 0.9-2.127 2.004-0.246 2.586-0.667 5.163-1.009 7.688" clip-path="url(#clipPath22)"/>
    <path transform="matrix(1.3333 0 0 -1.3333 1216.7 432)" d="m0 0c-0.034 5.783 0.744 11.48 3.662 16.911 2.62 4.878 6.705 8.775 14.035 10.096 5.667 1.022 11.218 0.384 16.603-1.167 1.147-0.33 1.749-0.906 1.817-1.811 0.231-3.083 0.456-6.166 0.732-9.246 0.12-1.347-0.733-1.131-1.792-0.662-2.03 0.899-4.128 1.662-6.472 2.043-5.648 0.918-9.706-0.405-12.477-4.127-1.981-2.661-2.771-5.59-3.067-8.544-0.462-4.629-0.384-9.264 1.362-13.793 0.137-0.356 0.285-0.71 0.436-1.064 3.207-7.478 11.118-8.585 19.081-5.261 0.698 0.292 1.401 0.994 2.221 0.599 0.909-0.438 0.327-1.241 0.267-1.894-0.244-2.648-0.558-5.294-0.7-7.945-0.066-1.236-0.724-1.908-2.336-2.281-3.972-0.917-7.985-1.606-12.177-1.262-7.244 0.594-12.271 3.563-15.577 8.158-4.362 6.063-5.343 12.682-5.615 19.396-0.025 0.618-3e-3 1.236-3e-3 1.854" clip-path="url(#clipPath24)"/>
    <path transform="matrix(1.3333 0 0 -1.3333 1292.5 433.42)" d="m0 0c1e-3 -8.226-0.045-16.452 0.038-24.678 0.018-1.718-0.63-2.505-3.153-2.37-2.519 0.136-5.065 0.083-7.595 0.015-1.768-0.048-2.477 0.518-2.409 1.751 0.021 0.37-8e-3 0.742-8e-3 1.113-1e-3 16.143-3e-3 32.286 1e-3 48.429 0 3.056 0.01 3.057 4.249 3.06 2.027 2e-3 4.059-0.072 6.078 0.015 2.353 0.102 2.826-0.813 2.819-2.286-0.042-8.349-0.021-16.699-0.02-25.049" clip-path="url(#clipPath26)"/>
    <path transform="matrix(1.3333 0 0 -1.3333 1052 433.15)" d="m0 0c0 8.157-7e-3 16.314 5e-3 24.471 3e-3 2.506 0.185 2.63 3.545 2.643 2.193 9e-3 4.39-0.061 6.579 0.017 2.105 0.074 2.772-0.582 2.76-2.083-0.065-8.589-0.03-17.179-0.03-25.768 1e-3 -8.095-0.048-16.191 0.039-24.285 0.018-1.662-0.645-2.367-3.014-2.243-2.35 0.122-4.727 0.1-7.082 5e-3 -2.089-0.084-2.852 0.513-2.825 2.031 0.077 4.325 0.024 8.651 0.023 12.977-1e-3 4.078 0 8.157 0 12.235" clip-path="url(#clipPath28)"/>
    <path transform="matrix(1.3333 0 0 -1.3333 1107.1 376.67)" d="m0 0c-1.006-1.665-1.976-3.101-2.746-4.592-0.719-1.393-1.831-1.978-3.965-1.929-6.212 0.146-5.628-0.439-4.07 3.936 0.892 2.506 1.961 4.977 2.841 7.485 0.422 1.203 1.247 1.756 2.995 1.727 3.535-0.059 7.075-0.047 10.611-6e-3 1.693 0.019 2.587-0.44 2.994-1.707 1.022-3.18 2.15-6.344 3.371-9.486 0.598-1.539-0.096-1.973-2.136-1.93-6.71 0.14-5.234-0.702-7.945 3.879-0.49 0.828-0.705 1.77-1.95 2.623" clip-path="url(#clipPath30)"/>
    <path transform="matrix(1.3333 0 0 -1.3333 1051.9 378.53)" d="m0 0c-0.014 5.144-0.014 5.179 7.091 5.134 6.848-0.044 6.119 0.806 6.171-4.535 0.013-1.42-0.016-2.841-0.028-4.261-8e-3 -0.989-0.656-1.446-2.037-1.433-3.035 0.027-6.071 0.032-9.106-2e-3 -1.529-0.016-2.126 0.511-2.098 1.577 0.031 1.173 7e-3 2.347 7e-3 3.52" clip-path="url(#clipPath32)"/>
    <path transform="matrix(1.3333 0 0 -1.3333 1292.6 378.29)" d="m0 0c-1e-3 -1.235-0.014-2.471 3e-3 -3.706 0.014-1.059-0.596-1.587-2.122-1.569-3.035 0.035-6.072 0.028-9.108 4e-3 -1.375-0.01-2.025 0.44-2.023 1.439 3e-3 2.409 0.01 4.818-0.014 7.227-0.01 1.067 0.6 1.588 2.118 1.572 2.951-0.031 5.904-0.04 8.855 7e-3 1.613 0.026 2.334-0.468 2.299-1.638-0.033-1.112-7e-3 -2.224-8e-3 -3.336" clip-path="url(#clipPath34)"/>
    <path transform="matrix(1.3333 0 0 -1.3333 1164.2 306.24)" d="m0 0c0 2.93-0.114 5.864 0.044 8.79 0.091 1.668-0.807 2.459-2.928 2.908-7.291 1.545-14.615-1.133-17.881-6.696-3.457-5.887-3.427-12.083-2.661-18.293 0.453-3.68 1.487-7.301 4.595-10.37 3.561-3.517 9.339-3.512 12.905-0.032 1.752 1.711 2.921 3.625 3.795 5.657 2.541 5.899 2.131 11.979 2.131 18.036m0.606-28.878c-1.521-1.494-2.546-3.165-4.039-4.642-6.593-6.521-17.987-6.731-25.041-0.453-5.336 4.749-7.699 10.391-8.751 16.335-1.496 8.448-1.115 16.852 2.045 25.116 0.831 2.173 1.935 4.268 3.407 6.25 6.291 8.469 15.7 11.782 28.585 9.902 2.608-0.38 3.274 0.078 3.23 1.941-0.12 5.177 0.023 10.357-0.075 15.535-0.031 1.591 0.748 2.231 2.899 2.185 2.881-0.063 5.767-0.038 8.65-0.017 1.863 0.013 2.761-0.602 2.661-1.983-0.035-0.476 5e-3 -0.954 5e-3 -1.431 0-24.53 1e-3 -49.06-1e-3 -73.59 0-3.287-7e-3 -3.289-4.406-3.291-2.232-1e-3 -4.467 0.046-6.697-6e-3 -1.789-0.042-2.524 0.519-2.488 1.817 0.059 2.11 0.016 4.221 0.016 6.332" clip-path="url(#clipPath36)"/>
    <path transform="matrix(1.3333 0 0 -1.3333 1314.8 308.76)" d="m0 0c0 3.581 1e-3 6.512 0 9.443-1e-3 3.697-1.041 4.479-6.127 4.534-1.016 0.011-2.051-0.044-3.05-0.176-7.579-1.005-10.995-5.018-12.829-9.924-2.067-5.528-1.925-11.187-0.923-16.831 0.557-3.134 1.615-6.173 4.268-8.761 3.579-3.49 8.93-3.59 12.726-0.258 2.576 2.26 3.739 4.99 4.756 7.769 1.791 4.893 0.965 9.895 1.179 14.204m0.087-27.555c-0.992-1.224-1.903-2.489-2.99-3.666-6.13-6.639-17.003-7.324-24.548-1.506-4.629 3.569-7.075 7.991-8.416 12.721-3.285 11.583-3.049 23.04 3.348 34.091 5.417 9.357 15.864 13.351 29.497 11.419 2.596-0.367 3.072 0.263 3.048 1.924-0.074 5.111 0.04 10.225-0.058 15.336-0.034 1.758 0.846 2.487 3.253 2.419 2.881-0.082 5.769-0.03 8.653-0.031 1.6-1e-3 2.432-0.527 2.302-1.752-0.035-0.338 4e-3 -0.681 4e-3 -1.022 0-24.88 2e-3 -49.761-2e-3 -74.642 0-2.856-0.013-2.859-3.798-2.869-2.326-6e-3 -4.658 0.072-6.978-0.019-2.12-0.084-2.813 0.636-2.769 2.064 0.057 1.827 0.014 3.656 0.014 5.484-0.187 0.016-0.373 0.033-0.56 0.049" clip-path="url(#clipPath38)"/>
    <path transform="matrix(1.3333 0 0 -1.3333 1051.3 345.11)" d="m0 0c-0.441-0.673-0.867-1.352-1.325-2.019-4.314-6.281-12.908-8.892-22.045-6.684-3.617 0.875-6.253 2.617-8.102 5.033-2.912 3.805-3.735 8.009-3.782 12.238-0.153 13.699-0.037 27.399-0.108 41.098-9e-3 1.757 0.784 2.487 3.228 2.39 2.598-0.103 5.215-0.103 7.813-1e-3 2.427 0.096 3.242-0.593 3.225-2.374-0.088-9.678-0.089-19.356-0.013-29.034 0.026-3.261-0.485-6.542 0.456-9.784 1.014-3.492 3.747-5.972 6.927-6.27 4.577-0.429 8.676 1.158 11.002 4.424 2.147 3.013 3.059 6.3 3.097 9.666 0.113 10.018 0.094 20.037 0.129 30.056 0.012 3.278 0.027 3.29 4.515 3.294 2.419 3e-3 4.839-0.04 7.257 5e-3 1.908 0.035 2.731-0.616 2.685-1.967-0.016-0.477 0.015-0.954 0.015-1.431 1e-3 -17.789 3e-3 -35.578-2e-3 -53.367 0-3.142-0.013-3.143-4.326-3.146-2.326-1e-3 -4.662 0.098-6.976-0.026-2.512-0.134-3.305 0.672-3.192 2.392 0.119 1.828 0.027 3.663 0.027 5.495-0.168 4e-3 -0.337 8e-3 -0.505 0.012" clip-path="url(#clipPath40)"/>
    <path transform="matrix(1.3333 0 0 -1.3333 808.17 302.01)" d="m0 0c0 12.478 0.058 24.957-0.057 37.434-0.019 2.064 0.847 2.729 3.649 2.71 12.658-0.082 25.319-0.028 37.979-0.039 3.649-3e-3 3.854-0.16 3.873-2.736 0.019-2.659-0.098-5.321 0.038-7.977 0.093-1.826-0.74-2.533-3.357-2.499-7.816 0.103-15.638-0.022-23.456 0.07-2.474 0.029-3.484-0.446-3.427-2.394 0.155-5.248 0.118-10.501 0.017-15.75-0.032-1.684 0.777-2.292 3.08-2.265 6.328 0.076 12.659 0.028 18.989 0.023 4.257-4e-3 4.259-8e-3 4.263-3.216 3e-3 -2.318-0.084-4.639 0.025-6.954 0.076-1.597-0.809-2.181-2.956-2.163-6.515 0.053-13.032 0.021-19.548 0.014-3.804-4e-3 -3.814-0.011-3.816-2.879-5e-3 -9.614 4e-3 -19.229-7e-3 -28.843-4e-3 -2.679-0.077-2.719-3.775-2.728-2.886-6e-3 -5.778 0.092-8.655-0.026-2.521-0.104-2.891 0.841-2.884 2.375 0.051 10.159 0.025 20.319 0.025 30.479v7.364" clip-path="url(#clipPath42)"/>
    <path transform="matrix(1.3333 0 0 -1.3333 1254.7 323.02)" d="m0 0c0-7.295-0.072-14.591 0.049-21.885 0.032-1.939-0.77-2.739-3.492-2.578-2.312 0.137-4.66 0.122-6.975 3e-3 -2.483-0.127-3.229 0.629-3.211 2.377 0.082 8.181 0.035 16.363 0.034 24.545 0 0.477-0.018 0.954-2e-3 1.431 0.036 1.022-0.318 1.494-1.713 0.725-3.149-1.735-6.825-2.777-10.247-4.153-5.451-2.191-8.42-5.386-8.069-10.117 0.361-4.87 4.682-7.235 11.176-5.934 4.716 0.945 4.717 0.945 4.047-2.588-0.089-0.472-0.149-0.951-0.301-1.413-0.555-1.696 0.25-4.042-1.705-4.979-2.657-1.274-6.198-1.477-9.43-1.37-6.054 0.2-11.145 2.044-13.873 6.152-4.728 7.121-5.049 14.457-0.541 21.714 2.397 3.858 7.017 6.106 12.122 7.798 3.897 1.291 7.971 2.314 11.785 3.72 5.58 2.057 7.278 5.113 5.607 9.303-0.972 2.439-3.408 3.848-6.92 4.006-6.316 0.285-11.843-1.382-17.146-3.663-0.82-0.353-1.678-1.226-2.675-0.711-0.783 0.406-0.164 1.287-0.122 1.946 0.155 2.449 0.409 4.894 0.595 7.342 0.065 0.861 0.259 1.631 1.517 1.994 7.794 2.249 15.796 3.859 24.232 2.889 9.706-1.116 15.046-6.333 15.208-14.669 0.142-7.293 0.03-14.59 0.03-21.885z" clip-path="url(#clipPath44)"/>
    <path transform="matrix(1.3333 0 0 -1.3333 931.43 322.71)" d="m0 0c3e-3 -7.157 6e-3 -14.314 2e-3 -21.472-1e-3 -3.198-7e-3 -3.198-4.496-3.201-1.861-2e-3 -3.734 0.099-5.58-0.024-2.663-0.176-3.587 0.567-3.559 2.541 0.113 8.043 0.063 16.087 0.021 24.13-5e-3 0.914 0.66 2.192-0.47 2.661-0.991 0.413-1.973-0.763-3.017-1.164-3.21-1.235-6.426-2.467-9.566-3.794-5.099-2.157-7.269-5.443-6.936-9.74 0.359-4.639 4.633-6.983 10.841-5.812 4.97 0.936 4.97 0.936 4.318-2.924-0.034-0.202-0.021-0.414-0.096-0.608-0.723-1.861 0.246-4.559-2.062-5.476-3.164-1.257-7.078-1.591-10.859-1.199-7.348 0.764-11.876 3.973-14.061 9.007-2.068 4.767-2.33 9.656-0.877 14.539 1.449 4.869 5.306 8.469 11.268 10.887 4.415 1.791 9.233 2.897 13.781 4.451 6.31 2.156 8.38 5.26 6.629 9.683-0.993 2.507-3.309 3.867-6.869 4.032-6.314 0.292-11.841-1.379-17.153-3.639-0.83-0.353-1.69-1.227-2.668-0.747-0.754 0.371-0.228 1.285-0.186 1.946 0.161 2.516 0.411 5.029 0.611 7.544 0.064 0.801 0.362 1.481 1.486 1.797 8.252 2.315 16.652 4.035 25.59 2.698 6.395-0.957 10.526-3.873 12.472-8.418 0.951-2.219 1.449-4.5 1.441-6.84-0.023-6.953-8e-3 -13.905-5e-3 -20.858" clip-path="url(#clipPath46)"/>
    <path transform="matrix(1.3333 0 0 -1.3333 1376.5 305.83)" d="m0 0v6e-3c2.787 0 5.573 5e-3 8.36-1e-3 1.411-4e-3 2.322 0.354 2.312 1.526-0.024 3.034-0.588 5.994-2.731 8.642-3.287 4.061-10.356 4.319-14.173 0.527-2.606-2.588-3.737-5.584-4.138-8.757-0.18-1.427 0.682-1.983 2.568-1.953 2.599 0.04 5.201 0.01 7.802 0.01m6.604-8.616c-4.933 0-9.867-0.046-14.798 0.021-2.141 0.029-2.708-0.58-2.533-2.091 0.432-3.745 0.815-7.464 3.289-10.886 3.414-4.72 8.89-6.638 16.053-5.527 3.494 0.542 6.723 1.584 9.866 2.786 1.427 0.545 2.233 0.595 2.06-0.923-0.355-3.121-0.55-6.253-0.811-9.38-0.09-1.076-0.429-1.98-2.086-2.374-5.717-1.357-11.557-2.224-17.566-1.788-8.855 0.642-14.768 4.444-18.834 9.987-3.356 4.575-4.942 9.552-5.66 14.665-1.053 7.511-0.546 14.973 2.141 22.296 1.463 3.987 3.656 7.74 7.582 10.804 9.489 7.408 24.687 6.49 32.422-1.964 3.557-3.886 5.057-8.302 5.961-12.86 0.698-3.522 0.567-7.067 0.648-10.609 0.036-1.588-0.774-2.198-2.936-2.171-4.932 0.064-9.865 0.02-14.798 0.02z" clip-path="url(#clipPath48)"/>
    <path transform="matrix(1.3333 0 0 -1.3333 940.68 313.58)" d="m0 0c-0.244 5.676 0.655 12.092 4.001 18.198 3.092 5.643 7.919 10.081 16.638 11.231 5.8 0.765 11.48 0.135 16.962-1.443 1.131-0.326 1.86-0.84 1.945-1.789 0.311-3.462 0.677-6.921 0.972-10.384 0.112-1.306-0.757-1.33-2.055-0.766-2.327 1.01-4.745 1.855-7.422 2.286-5.418 0.875-9.759-0.374-12.727-3.793-2.401-2.767-3.536-5.889-3.863-9.088-0.527-5.163-0.702-10.348 0.982-15.45 0.24-0.727 0.527-1.447 0.845-2.158 3.707-8.279 12.166-9.316 21.127-5.704 0.761 0.306 1.486 1.13 2.411 0.644 0.683-0.358 0.231-1.159 0.19-1.755-0.206-2.991-0.484-5.979-0.687-8.97-0.094-1.387-0.92-2.216-2.782-2.684-13.958-3.512-26.042-0.714-32.083 10.132-3.095 5.555-4.425 11.706-4.454 21.493" clip-path="url(#clipPath50)"/>
    <path transform="matrix(1.3333 0 0 -1.3333 1103.3 302.25)" d="m0 0c0-12.197 1e-3 -24.395-1e-3 -36.592-1e-3 -3.422-6e-3 -3.423-4.786-3.423-2.419 0-4.839 0.042-7.256-6e-3 -1.655-0.034-2.411 0.498-2.408 1.682 1e-3 0.545-0.022 1.09-0.022 1.635-1e-3 24.531-2e-3 49.062 0 73.594 1e-3 3.39 8e-3 3.391 4.65 3.397 2.139 2e-3 4.285-0.078 6.417 0.018 2.521 0.114 3.471-0.621 3.44-2.487-0.099-6.063-0.035-12.128-0.034-18.193v-19.625" clip-path="url(#clipPath52)"/>
   </g>
  </g>
 </g>
</svg>
